<svg xmlns="http://www.w3.org/2000/svg" viewBox="0 0 24 7.72" class="footer-logo" width="24" height="7.72"><path fill="#3273fa" d="M7.707 7.546a.583.583 0 1 1 .414.175.56.56 0 0 1-.414-.175"/><path fill="#fff" d="M16.338 2.813v-.032q0-1.973-2.019-1.973h-1.797q-2.019 0-2.019 1.973v2.964q0 1.975 2.019 1.975h1.793q2.019 0 2.019-1.975v-1.62h-2.695l-.468 1.026h2.019v.594q0 .96-.867.96h-1.8q-.868 0-.868-.959V2.782q0-.958.868-.958h1.793q.867 0 .867.958v.537zm7.541 0v-.032q0-1.973-2.018-1.973h-1.798q-2.018 0-2.018 1.973v2.964q0 1.975 2.018 1.975h1.792q2.019 0 2.019-1.975v-1.62H21.18l-.468 1.026h2.018v.594q0 .96-.868.96h-1.799q-.867 0-.867-.959V2.782q0-.958.866-.958h1.792q.868 0 .868.958v.537zM4.562.719v5.366a3.4 3.4 0 0 1-1.685.456 3.4 3.4 0 0 1-1.691-.456V.719L0 1.238v5.491l.268.18a4.7 4.7 0 0 0 2.605.811 4.7 4.7 0 0 0 2.603-.812l.268-.175V1.238z"/><path fill="#3273fa" d="m2.824 0-.58.268v3.866q.286.084.583.084a2 2 0 0 0 .584-.084V.268z"/></svg>
